<svg xmlns="http://www.w3.org/2000/svg" viewBox="0 0 1190 619"><rect x="528" y="571" width="48" height="48" fill="#5ee5a4"/><rect x="528" y="507" width="48" height="48" fill="#6aeda1"/><rect x="528" y="443" width="48" height="48" fill="#5ee5a4"/><rect x="464" y="571" width="48" height="48" fill="#55e0a7"/><rect x="464" y="443" width="48" height="48" fill="#55e0a7"/><rect x="400" y="571" width="48" height="48" fill="#4ad9aa"/><rect x="400" y="443" width="48" height="48" fill="#4ad9aa"/><rect x="336" y="571" width="48" height="48" fill="#40d2ad"/><rect x="336" y="507" width="176" height="48" fill="#20beb6" opacity="0.9"/><rect x="336" y="443" width="48" height="48" fill="#40d2ad"/><rect x="272" y="571" width="48" height="48" fill="#20beb6"/><rect x="272" y="507" width="48" height="48" fill="#2bc5b3"/><rect x="272" y="443" width="48" height="48" fill="#35ccb0"/><rect x="208" y="443" width="48" height="48" fill="#20beb6"/><rect x="144" y="507" width="112" height="112" fill="#40d2ad" opacity="0.9"/><rect x="144" y="443" width="48" height="48" fill="#35ccb0"/><rect x="80" y="571" width="48" height="48" fill="#2bc5b3"/><rect x="80" y="507" width="48" height="48" fill="#0cb2bc"/><rect x="80" y="443" width="48" height="48" fill="#20beb6"/><rect x="16" y="571" width="48" height="48" fill="#16b8b9"/><rect x="16" y="443" width="48" height="112" fill="#0cb2bc" opacity="0.9"/><path d="M1065.2,503.07l34.72,68.29h-44.38l-23-55.64h-.46v55.64H993.46V400.29h52.19q14.71,0,24.49,4.48a41.44,41.44,0,0,1,15.64,12,46.5,46.5,0,0,1,8.39,17.48,85.74,85.74,0,0,1,2.53,21,52.11,52.11,0,0,1-3.8,20.47,57.94,57.94,0,0,1-9,15.06,42.12,42.12,0,0,1-10.47,9.2C1069.94,502,1067.19,503.07,1065.2,503.07Z" fill="#4ad9aa" opacity="0.3"/><polygon points="913.21 400.29 963.34 571.36 919.42 571.36 904.01 526.29 870.67 526.29 855.5 571.36 811.58 571.36 861.71 400.29 913.21 400.29" fill="#4ad9aa" opacity="0.3"/><path d="M790.66,524.45a55.82,55.82,0,0,1-2.87,17.94,45,45,0,0,1-8.49,15.06,39.53,39.53,0,0,1-14.11,10.35,47.93,47.93,0,0,1-19.73,3.79H689.72V400.29h39.54a68.32,68.32,0,0,1,22.08,3.23,42.61,42.61,0,0,1,15.4,8.76,35.58,35.58,0,0,1,9,12.91,42,42,0,0,1,3,15.91,52.4,52.4,0,0,1-2.41,16.37,46.47,46.47,0,0,1-6.21,12.69,31.58,31.58,0,0,1-8.4,8.3,16.08,16.08,0,0,1-8.73,3q10.35,0,17.47,4.25A37.17,37.17,0,0,1,782,496.4a45.14,45.14,0,0,1,6.56,14A53.6,53.6,0,0,1,790.66,524.45Z" fill="#4ad9aa" opacity="0.3"/><path d="M1190,0V619H592V571h64V507H592V400H576v27H528V400H512v27H464V400H448v27H400V400H384v27H336V400H320v27H272V400H256v27H208V400H192v27H144V400H128v27H80V400H64v27H16V400H0V0Zm-90.08,571.36-34.72-68.29c2,0,4.74-1,8.27-3.1a42.12,42.12,0,0,0,10.47-9.2,57.94,57.94,0,0,0,9-15.06,52.11,52.11,0,0,0,3.8-20.47,85.74,85.74,0,0,0-2.53-21,46.5,46.5,0,0,0-8.39-17.48,41.44,41.44,0,0,0-15.64-12q-9.78-4.49-24.49-4.48H993.46V571.36h38.63V515.72h.46l23,55.64Zm-.07-230.64V276.33H989.23V230.44h81V166.37h-81V120.48h110.62V56.1h-175V340.72ZM963.34,571.36,913.21,400.29h-51.5L811.58,571.36H855.5l15.17-45.07H904l15.41,45.07ZM880.53,274.42v-5.1c0-14.66-2.55-27.09-7.65-37.93A99.09,99.09,0,0,0,852.48,203a157.78,157.78,0,0,0-28.69-22.63c-10.84-6.69-22.32-13.07-33.8-19.76-8.6-6.06-14.66-11.16-18.8-14.66-3.83-3.83-5.74-8-5.74-13.07,0-6.38,1.91-11.16,6.38-14.35a21.76,21.76,0,0,1,13.7-4.77A28.29,28.29,0,0,1,798.6,117a42.29,42.29,0,0,1,9.57,7.33,39.62,39.62,0,0,1,6.05,9.57,50.44,50.44,0,0,1,3.51,9.56l56.42-22.31a73.94,73.94,0,0,0-8.28-23,62.57,62.57,0,0,0-16.9-21,90.31,90.31,0,0,0-26.78-15c-10.52-4.14-23-6-37-6a136.09,136.09,0,0,0-34.11,5.41,92.13,92.13,0,0,0-29,14.67A72.06,72.06,0,0,0,702,99.76c-5.1,9.56-7.65,20.4-7.65,32.83,0,13.7,2.23,24.86,7,33.78a81.2,81.2,0,0,0,19.45,23.91,194.34,194.34,0,0,0,29,20.72c11.16,6.37,23.27,14,36.34,22.63,5.74,4.14,10.2,8,13.39,11.79,3.19,3.5,5.1,7.65,5.1,11.79.32,7.33-1.59,12.43-5.74,15.94a28.35,28.35,0,0,1-12.75,5.73,19.48,19.48,0,0,1-14.34-3.5,49.45,49.45,0,0,1-11.48-9.88,50.12,50.12,0,0,1-7-10.52c-1.6-3.19-2.24-5.1-1.6-5.42l-61.21,25.82A82.64,82.64,0,0,0,703,302.79a84.06,84.06,0,0,0,20.72,20.4,108.55,108.55,0,0,0,27.41,13.06,115.61,115.61,0,0,0,32.2,4.47c15,0,28.05-1.6,39.85-5.1a97.12,97.12,0,0,0,30-14.34c8.29-5.74,15-12.75,19.45-21A57,57,0,0,0,880.53,274.42Zm-92.74,268a55.82,55.82,0,0,0,2.87-17.94,53.6,53.6,0,0,0-2.07-14,45.14,45.14,0,0,0-6.56-14,37.17,37.17,0,0,0-11.61-10.69q-7.12-4.26-17.47-4.25a16.08,16.08,0,0,0,8.73-3,31.58,31.58,0,0,0,8.4-8.3,46.47,46.47,0,0,0,6.21-12.69,52.4,52.4,0,0,0,2.41-16.37,42,42,0,0,0-3-15.91,35.58,35.58,0,0,0-9-12.91,42.61,42.61,0,0,0-15.4-8.76,68.32,68.32,0,0,0-22.08-3.23H689.72v171.3h55.74a47.93,47.93,0,0,0,19.73-3.79,39.53,39.53,0,0,0,14.11-10.35A45,45,0,0,0,787.79,542.39ZM656.42,340.72V56.1H592V340.72ZM553.14,227.57V161A119.62,119.62,0,0,0,545.81,123,94.13,94.13,0,0,0,525.09,90.2C514.57,79.36,502.77,70.76,489.38,65a102.59,102.59,0,0,0-42.71-8.92h-.32A100.1,100.1,0,0,0,404,65c-13.39,5.74-25.19,14.34-36,25.18a100.15,100.15,0,0,0-20.72,33.47c-4.79,12.74-7.34,25.17-7.34,37.29v66.61a155.69,155.69,0,0,0,6.7,43,95.26,95.26,0,0,0,21.36,36.33,116.11,116.11,0,0,0,36,25.5,107.22,107.22,0,0,0,42.4,8.61h.32a107.62,107.62,0,0,0,42.71-8.61,112.4,112.4,0,0,0,35.71-25.82,87.89,87.89,0,0,0,21.67-37.29A147.33,147.33,0,0,0,553.14,227.57ZM300.34,340.72V56.1H232.12V195.7L155.94,56.1H90.58V340.72H158.8V200.8l76.51,139.92Z" fill="#2bc5b3"/></svg>