<svg version="1.2" baseProfile="tiny-ps" xmlns="http://www.w3.org/2000/svg" viewBox="0 0 320 320"><style>@-webkit-keyframes pulse{0%{opacity:.2}to{opacity:1}}@keyframes pulse{0%{opacity:.2}to{opacity:1}}rect{-webkit-animation:pulse 1.8s ease-in-out infinite alternate;animation:pulse 1.8s ease-in-out infinite alternate}rect:nth-child(1),rect:nth-child(13),rect:nth-child(18),rect:nth-child(21),rect:nth-child(25),rect:nth-child(4),rect:nth-child(7){animation-delay:600ms}rect:nth-child(11),rect:nth-child(15),rect:nth-child(2),rect:nth-child(20),rect:nth-child(22),rect:nth-child(24),rect:nth-child(3){animation-delay:1200ms}</style><path fill="#20BEB6" d="M75 75h20v20H75z"/><path fill="#2BC5B3" d="M105 75h20v20h-20zM105 45h20v20h-20z"/><path fill="#20BEB6" d="M75 105h20v20H75z"/><path fill="#2BC5B3" d="M105 105h20v20h-20z"/><path fill="#35CCB0" d="M135 105h20v20h-20z"/><path fill="#16B8B9" d="M45 135h20v20H45z"/><path fill="#20BEB6" d="M75 135h20v20H75z"/><path fill="#2BC5B3" d="M105 135h20v20h-20z"/><path fill="#35CCB0" d="M135 135h20v20h-20z"/><path fill="#5EE5A4" d="M255 135h20v20h-20z"/><path fill="#0CB2BC" d="M15 165h20v20H15z"/><path fill="#16B8B9" d="M45 165h20v20H45z"/><path fill="#20BEB6" d="M75 165h20v20H75z"/><path fill="#35CCB0" d="M135 165h20v20h-20z"/><path fill="#40D2AD" d="M165 165h20v20h-20z"/><path fill="#5EE5A4" d="M255 165h20v20h-20z"/><path fill="#6AEDA1" d="M285 165h20v20h-20z"/><path fill="#40D2AD" d="M165 195h20v20h-20z"/><path fill="#4AD9AA" d="M195 195h20v20h-20z"/><path fill="#55E0A7" d="M225 195h20v20h-20z"/><path fill="#5EE5A4" d="M255 195h20v20h-20z"/><path fill="#4AD9AA" d="M195 225h20v20h-20z"/><path fill="#55E0A7" d="M225 225h20v20h-20zM225 255h20v20h-20z"/></svg>